<?xml version="1.0" encoding="UTF-8"?>
<svg id="Layer_2" data-name="Layer 2" xmlns="http://www.w3.org/2000/svg" viewBox="0 0 94.05 93.81">
  <defs>
    <style>
      .cls-1 {
        fill: #1b3b5f;
        fill-rule: evenodd;
      }
    </style>
  </defs>
  <g id="Layer_1-2" data-name="Layer 1">
    <path class="cls-1" d="M44.75,24.64c-12.31,1.25-21.28,12.25-20.03,24.56,1.16,11.43,10.77,20.12,22.26,20.14,5.95.03,11.67-2.33,15.86-6.54,4.19-4.2,6.54-9.89,6.55-15.82,0-.67,0-1.44-.89-1.44h-5.88c-.89,0-.89.77-.89,1.44-.03,3.93-1.58,7.69-4.33,10.5-5.77,5.75-15.1,5.75-20.87,0-2.76-2.8-4.32-6.57-4.35-10.5.02-8.16,6.63-14.78,14.79-14.8.67,0,1.44,0,1.44-.89V1.67c.12-.8-.43-1.54-1.23-1.66-.8-.12-1.54.43-1.66,1.23-.02.14-.02.29,0,.43v22.08c.01.45-.32.84-.77.89h-.01ZM86.72,19.54l-12.88,12.83c-.27.29-.65.45-1.04.44h-8.4c-.46.02-.9.22-1.22.55l-15.32,15.24c-.55.55-1.44.56-2,0-.55-.55-.56-1.44,0-2l15.22-15.19c.39-.33.59-.83.52-1.34v-8.35c.01-.38.17-.73.45-.99l13.02-12.95c.57-.55,1.48-.54,2.04.03.26.27.41.63.41,1.01v7.43c0,.49.38.88.87.89h7.33c.78-.03,1.45.57,1.48,1.36.02.41-.14.8-.43,1.09l-.02-.04ZM73.16,45.5h19.45c.8,0,1.44.65,1.44,1.44,0,.79-.65,1.44-1.44,1.44h-7.54c-.45-.04-.85.29-.89.73,0,.05,0,.1,0,.15-.54,7.62-3.32,14.91-7.97,20.97-5.18,6.59-12.42,11.24-20.57,13.2-.67.11-1.45,0-1.45-.89v-10.76c.05-.37.31-.67.67-.78,3.76-1.31,7.18-3.45,10-6.26,4.73-4.7,7.41-11.09,7.44-17.76,0-.67,0-1.44.89-1.44l-.02-.04ZM48.41,73.07v19.41c-.07.8-.77,1.39-1.57,1.32-.71-.06-1.26-.62-1.32-1.32v-7.31c.02-.45-.32-.84-.77-.89-16.34-1.09-30.05-12.75-33.76-28.7-.22-.67,0-1.33.77-1.33h10.33c.42-.03.79.25.89.66,3.44,10.33,13.11,17.3,24,17.3.67,0,1.44,0,1.44.89v-.04ZM20.76,48.33H1.44C.64,48.33,0,47.69,0,46.89c0-.79.64-1.44,1.44-1.44h7.54c.5.05.95-.29,1.04-.78.81-16.32,12.08-30.24,27.88-34.44.51-.09,1,.25,1.09.76,0,.04.01.09.01.13v11.19c.04.39-.19.75-.55.89-3.5,1.26-6.68,3.27-9.33,5.89-4.78,4.73-7.47,11.17-7.48,17.9,0,.67,0,1.44-.89,1.44v-.08ZM57.96,45.45h-1.44c-.23,0-.45.12-.55.33l-5.45,5.44c-4.77,4.7-11.89-2.52-7.21-7.17l4.77-4.89c.21-.11.33-.32.33-.55v-2.66c-.03-.48-.41-.86-.89-.89-6.58-.24-12.11,4.9-12.35,11.49-.24,6.58,4.9,12.11,11.49,12.35,6.58.24,12.11-4.9,12.35-11.49.01-.35.01-.69,0-1.04-.08-.52-.52-.89-1.04-.89v-.04Z"/>
  </g>
</svg>