<?xml version="1.0" encoding="UTF-8"?>
<svg id="Layer_2" data-name="Layer 2" xmlns="http://www.w3.org/2000/svg" viewBox="0 0 157.45 143.79">
  <defs>
    <style>
      .cls-1 {
        fill: #2f78bd;
      }

      .cls-2 {
        opacity: .12;
      }
    </style>
  </defs>
  <g id="Layer_1-2" data-name="Layer 1">
    <g class="cls-2">
      <g>
        <path class="cls-1" d="M124.69,71.41l-.11.94-40.54,71.05-.76.38-17.36-.19-.24-.45,31.32-54.97c.16-.4-.21-.68-.6-.76-1.02-.19-4.94-.12-6.1-.01-.74.07-1.37.19-1.77.9l-31.57,55.27c-.91.57-4.4-.36-5.51-.73-5.03-1.67-7.75-4.65-10.41-9.02C27.23,111.02,15.34,86.96,1.69,64.05c-1.91-4.32-2.25-9.37-.79-13.88,1.08-3.35,3.63-6.42,5.18-9.58l.83.15,44.6,78.81.73-.16,27.61-47.99h44.85Z"/>
        <path class="cls-1" d="M47.28,16.37l-.26.44,27.03,48.22-.16.8-21.59,37.82c-.47.67-.92,1.08-1.46.19L10.84,32.99l.11-.95,8.61-15.01h.58s30.76,54.37,30.76,54.37c.21.35.62.5,1.01.35.83-1.82,2.26-3.6,3.11-5.36.59-1.23.65-1.36.07-2.61L24.48,9.85c-.54-1.15.83-2.62,1.56-3.48,3.21-3.76,7.75-5.92,12.67-6.37h80.36c6.1.63,11.04,3.33,14.34,8.51.86,1.35,3.23,5.26,3.7,6.58.11.31.3,1.28-.14,1.28H47.28Z"/>
        <path class="cls-1" d="M137.64,63.41h-54.37c-1.15,0-2.41-2.72-2.98-3.68-6.93-11.68-13.3-23.73-20.1-35.48l.14-.64h81.42c.57.48.89,1.16,1.27,1.78,2.67,4.36,4.81,9.07,7.56,13.38.27.26.28,1.22-.07,1.22h-62.28c-.1,0-.61.54-.4.77,1.16,1.64,1.98,3.68,3.08,5.31.29.43.58,1.05,1.13,1.15h62.65c1.24.24,2.37,4.83,2.55,6.03.49,3.29.16,6.68-1.02,9.78-13.68,24.73-27.68,49.32-41.8,73.79-2.44,3.33-8.5,6.95-12.66,6.95h-8.76c-.15,0-.37-.45-.29-.65l44.67-78.56.28-1.15Z"/>
      </g>
    </g>
  </g>
</svg>