<?xml version="1.0" encoding="UTF-8"?>
<svg id="Layer_2" data-name="Layer 2" xmlns="http://www.w3.org/2000/svg" viewBox="0 0 19.06 19.06">
  <defs>
    <style>
      .cls-1 {
        fill: #2e78bc;
      }
    </style>
  </defs>
  <g id="Layer_1-2" data-name="Layer 1">
    <path class="cls-1" d="M19.06,11.89v3.67c0,1.92-1.55,3.49-3.47,3.5-.01,0-.02,0-.04,0-1.33,0-2.62-.17-3.85-.48C6.21,17.18,1.88,12.85.48,7.36c-.31-1.23-.48-2.52-.48-3.85,0-.01,0-.02,0-.04C0,1.55,1.58,0,3.5,0h3.67c.9,0,1.64.73,1.64,1.64v4.08c0,.9-.73,1.64-1.64,1.64h-1.23c1.05,2.62,3.14,4.72,5.77,5.77v-1.23c0-.9.73-1.64,1.64-1.64h4.08c.9,0,1.64.73,1.64,1.64Z"/>
  </g>
</svg>