<?xml version="1.0" encoding="UTF-8"?>
<svg id="Layer_2" data-name="Layer 2" xmlns="http://www.w3.org/2000/svg" viewBox="0 0 37.42 37.37">
  <defs>
    <style>
      .cls-1 {
        fill: #12853f;
      }
    </style>
  </defs>
  <g id="Layer_1-2" data-name="Layer 1">
    <path class="cls-1" d="M14.59,12.81l3.96-6.54-2.62-4.36c-.36-.59-.87-.89-1.53-.89s-1.18.3-1.53.89l-4.36,7.25,6.1,3.65h0M31.81,24.91l-3.96-6.58,6.18-3.56,2.85,4.76c.33.5.5,1.07.53,1.69.03.62-.1,1.2-.4,1.74-.3.59-.73,1.07-1.31,1.42s-1.21.53-1.89.53h-2M26.69,37.37l-7.12-7.12,7.12-7.12v3.56h8.45l-2.58,5.16c-.33.59-.77,1.07-1.33,1.42-.56.36-1.19.53-1.87.53h-2.67v3.56h0M9.48,33.81c-.59,0-1.13-.16-1.62-.47-.49-.31-.85-.72-1.09-1.22-.24-.47-.35-.97-.33-1.49.01-.52.16-1,.42-1.45l1.51-2.49h7.65v7.12h-6.54M5.07,28.74l-2.89-5.78c-.27-.53-.39-1.1-.38-1.71.01-.61.19-1.18.51-1.71l.71-1.2-3.03-1.82,9.74-2.45,2.45,9.79-3.07-1.87-4.05,6.76h0M29.1,13.53l-9.74-2.45,3.07-1.82L16.86,0h6.27c.62,0,1.21.16,1.76.47.55.31.99.73,1.31,1.27l2.31,3.87,3.03-1.87-2.45,9.79h0"/>
  </g>
</svg>