<?xml version="1.0" encoding="UTF-8"?>
<svg id="Layer_2" data-name="Layer 2" xmlns="http://www.w3.org/2000/svg" viewBox="0 0 41.55 40.47">
  <defs>
    <style>
      .cls-1 {
        fill: none;
        stroke: #fff;
        stroke-linecap: round;
        stroke-linejoin: round;
        stroke-width: 1.28px;
      }
    </style>
  </defs>
  <g id="Layer_1-2" data-name="Layer 1">
    <g>
      <g>
        <path class="cls-1" d="M6.89,21.01c-2.5-1.55-4.17-4.31-4.17-7.47,0-4.85,3.93-8.78,8.78-8.78,2,0,3.85.67,5.32,1.8"/>
        <path class="cls-1" d="M39.75,15.81c-.31,2.76-1.91,5.13-4.17,6.51"/>
        <path class="cls-1" d="M37.11,21.13c.91,1.38,1.43,3.03,1.43,4.81,0,4.35-3.17,7.97-7.33,8.66"/>
        <path class="cls-1" d="M2.92,29.89c-1.63-1.42-2.53-3.6-2.22-5.89.2-1.45.85-2.73,1.79-3.71"/>
        <path class="cls-1" d="M14.59,5.33c1.24-2.76,4.02-4.68,7.24-4.68,2.59,0,4.89,1.24,6.34,3.16"/>
        <path class="cls-1" d="M29.02,31.57c-.26,4.6-4.08,8.45-8.75,8.25-5.41-.22-6.91-3.23-9.36-5.77"/>
      </g>
      <g>
        <path class="cls-1" d="M17,21.92c-.57.43-1.28.68-2.05.68-1.89,0-3.42-1.53-3.42-3.42s1.53-3.42,3.42-3.42c.71,0,1.37.22,1.91.58"/>
        <circle class="cls-1" cx="22.3" cy="19.19" r="3.42"/>
        <path class="cls-1" d="M27.7,21.33c0-.68.55-1.22,1.22-1.22s1.22.55,1.22,1.22c0,.63-.25.82-.7,1.27l-1.24,1.02c-.32.26-.51.66-.51,1.07h2.61"/>
      </g>
      <path class="cls-1" d="M31.7,4.21c2.99-1.08,5.39.15,6.46,2.62,1.1,2.52.81,4.45,2.75,4.72-2.2,3.23-11.24,1.24-10.6-5.09"/>
      <path class="cls-1" d="M15.13,38.65c-1.95.82-4.36.1-5.85-2.16-1.51-2.3-2.16-4.04-4.11-3.98,1.62-3.55,12.22-2.96,11.79,3.71"/>
      <path class="cls-1" d="M36.61,9.93c-1.53-2.59-3.16-7.43-10.85-5.79"/>
    </g>
  </g>
</svg>