<?xml version="1.0" encoding="UTF-8"?>
<svg id="Layer_2" data-name="Layer 2" xmlns="http://www.w3.org/2000/svg" viewBox="0 0 332.28 62.63">
  <defs>
    <style>
      .cls-1 {
        fill: #ffc905;
      }

      .cls-2 {
        fill: #2e78bc;
      }
    </style>
  </defs>
  <g id="Layer_1-2" data-name="Layer 1">
    <g>
      <g>
        <path class="cls-1" d="M54.32,31.11l-.05.41-17.66,30.95-.33.17-7.56-.08-.1-.2,13.64-23.95c.07-.18-.09-.3-.26-.33-.45-.08-2.15-.05-2.66,0-.32.03-.6.08-.77.39l-13.75,24.08c-.4.25-1.91-.16-2.4-.32-2.19-.73-3.38-2.02-4.53-3.93C11.86,48.36,6.68,37.88.74,27.9c-.83-1.88-.98-4.08-.35-6.05.47-1.46,1.58-2.8,2.26-4.17l.36.07,19.43,34.33.32-.07,12.03-20.9h19.54Z"/>
        <path class="cls-2" d="M20.59,7.13l-.11.19,11.77,21-.07.35-9.41,16.48c-.21.29-.4.47-.64.08L4.72,14.37l.05-.41,3.75-6.54h.25l13.4,23.68c.09.15.27.22.44.15.36-.79.99-1.57,1.36-2.33.26-.53.28-.59.03-1.14L10.66,4.29c-.24-.5.36-1.14.68-1.52,1.4-1.64,3.38-2.58,5.52-2.78h35.01c2.66.28,4.81,1.45,6.25,3.71.38.59,1.41,2.29,1.61,2.87.05.14.13.56-.06.56H20.59Z"/>
        <path class="cls-2" d="M59.96,27.62h-23.68c-.5,0-1.05-1.18-1.3-1.6-3.02-5.09-5.79-10.34-8.76-15.46l.06-.28h35.47c.25.21.39.5.55.77,1.16,1.9,2.1,3.95,3.3,5.83.12.11.12.53-.03.53h-27.13s-.26.24-.18.33c.5.71.86,1.6,1.34,2.31.13.19.25.46.49.5h27.29c.54.11,1.03,2.1,1.11,2.63.21,1.43.07,2.91-.45,4.26-5.96,10.77-12.06,21.48-18.21,32.14-1.06,1.45-3.7,3.03-5.52,3.03h-3.82c-.06,0-.16-.19-.13-.28l19.46-34.22.12-.5Z"/>
      </g>
      <path d="M83.2,15.7h8.62c2.23,0,3.9.62,5.02,1.85,1.12,1.24,1.69,3.07,1.71,5.49l.07,14.62c.02,3.08-.51,5.39-1.6,6.95-1.09,1.55-2.9,2.33-5.42,2.33h-8.4V15.7ZM90.58,41.41c1.14,0,1.71-.56,1.71-1.67v-16.11c0-.7-.05-1.23-.16-1.58-.11-.35-.31-.59-.6-.71-.29-.12-.74-.18-1.35-.18h-.69v20.26h1.09Z"/>
      <polygon points="101.13 46.94 101.13 15.7 113.64 15.7 113.64 21.73 107.49 21.73 107.49 27.81 113.39 27.81 113.39 33.7 107.49 33.7 107.49 40.86 114.04 40.86 114.04 46.94 101.13 46.94"/>
      <polygon points="116.11 46.94 116.11 15.7 128.62 15.7 128.62 21.77 122.4 21.77 122.4 26.75 128.3 26.75 128.3 32.75 122.4 32.75 122.4 46.94 116.11 46.94"/>
      <polygon points="130.62 46.94 130.62 15.7 143.13 15.7 143.13 21.77 136.91 21.77 136.91 26.75 142.81 26.75 142.81 32.75 136.91 32.75 136.91 46.94 130.62 46.94"/>
      <path d="M145.13,15.7h9.6c1.53,0,2.71.35,3.55,1.04.84.69,1.4,1.66,1.69,2.91.29,1.25.44,2.84.44,4.78,0,1.77-.23,3.15-.69,4.15-.46,1-1.26,1.69-2.4,2.07.95.19,1.63.67,2.06,1.42.42.75.64,1.77.64,3.06l-.07,11.82h-6.11v-12.22c0-.87-.17-1.43-.51-1.67-.34-.24-.96-.36-1.85-.36v14.26h-6.33V15.7ZM152.99,27.26c.87,0,1.31-.95,1.31-2.84,0-.82-.04-1.44-.11-1.85-.07-.41-.21-.7-.4-.86-.19-.16-.47-.24-.84-.24h-1.45v5.78h1.49Z"/>
      <path d="M161.65,46.94l3.02-31.24h10.58l2.98,31.24h-5.93l-.44-5.06h-3.78l-.36,5.06h-6.07ZM168.55,36.9h2.84l-1.38-15.89h-.29l-1.16,15.89Z"/>
      <rect x="179.83" y="15.7" width="6.04" height="31.24"/>
      <polygon points="188.38 46.94 188.38 15.7 194.63 15.7 194.63 41.63 201.07 41.63 201.07 46.94 188.38 46.94"/>
      <path d="M212.6,45.12c-1.26-1.41-1.89-3.67-1.89-6.8v-3.05h6.15v3.89c0,1.55.5,2.33,1.49,2.33.56,0,.95-.16,1.16-.49.22-.33.33-.88.33-1.65,0-1.02-.12-1.86-.36-2.53-.24-.67-.55-1.23-.93-1.67-.38-.45-1.05-1.15-2.02-2.09l-2.69-2.69c-2.09-2.04-3.13-4.29-3.13-6.77,0-2.67.61-4.7,1.84-6.09,1.22-1.39,3.01-2.09,5.36-2.09,2.81,0,4.84.75,6.07,2.24,1.24,1.49,1.85,3.82,1.85,7h-6.36l-.04-2.15c0-.41-.11-.74-.34-.98-.23-.24-.55-.36-.96-.36-.49,0-.85.13-1.09.4-.24.27-.36.63-.36,1.09,0,1.02.58,2.07,1.75,3.16l3.64,3.49c.85.82,1.55,1.61,2.11,2.35.56.74,1.01,1.61,1.35,2.62.34,1.01.51,2.2.51,3.58,0,3.08-.56,5.41-1.69,7-1.13,1.59-2.99,2.38-5.58,2.38-2.84,0-4.89-.7-6.15-2.11"/>
      <polygon points="231.87 46.94 231.87 36.65 226.89 15.7 233.07 15.7 234.82 26.28 236.56 15.7 242.75 15.7 237.76 36.65 237.76 46.94 231.87 46.94"/>
      <path d="M245.58,45.12c-1.26-1.41-1.89-3.67-1.89-6.8v-3.05h6.15v3.89c0,1.55.5,2.33,1.49,2.33.56,0,.95-.16,1.16-.49.22-.33.33-.88.33-1.65,0-1.02-.12-1.86-.36-2.53-.24-.67-.55-1.23-.93-1.67-.38-.45-1.05-1.15-2.02-2.09l-2.69-2.69c-2.09-2.04-3.13-4.29-3.13-6.77,0-2.67.61-4.7,1.84-6.09,1.22-1.39,3.01-2.09,5.36-2.09,2.81,0,4.84.75,6.07,2.24,1.24,1.49,1.85,3.82,1.85,7h-6.36l-.04-2.15c0-.41-.11-.74-.34-.98-.23-.24-.55-.36-.96-.36-.49,0-.85.13-1.09.4-.24.27-.36.63-.36,1.09,0,1.02.58,2.07,1.75,3.16l3.64,3.49c.85.82,1.55,1.61,2.11,2.35.56.74,1.01,1.61,1.35,2.62.34,1.01.51,2.2.51,3.58,0,3.08-.56,5.41-1.69,7-1.13,1.59-2.99,2.38-5.58,2.38-2.84,0-4.89-.7-6.15-2.11"/>
      <polygon points="263.77 46.94 263.77 21.7 260.06 21.7 260.06 15.7 273.73 15.7 273.73 21.7 270.02 21.7 270.02 46.94 263.77 46.94"/>
      <polygon points="275.48 46.94 275.48 15.7 287.99 15.7 287.99 21.73 281.84 21.73 281.84 27.81 287.73 27.81 287.73 33.7 281.84 33.7 281.84 40.86 288.39 40.86 288.39 46.94 275.48 46.94"/>
      <polygon points="290.46 46.94 290.46 15.7 299.99 15.7 302.61 34.75 305.22 15.7 314.82 15.7 314.82 46.94 309.12 46.94 309.12 24.43 305.52 46.94 299.91 46.94 296.1 24.43 296.1 46.94 290.46 46.94"/>
      <path d="M318.86,45.12c-1.26-1.41-1.89-3.67-1.89-6.8v-3.05h6.15v3.89c0,1.55.5,2.33,1.49,2.33.56,0,.95-.16,1.16-.49.22-.33.33-.88.33-1.65,0-1.02-.12-1.86-.36-2.53-.24-.67-.55-1.23-.93-1.67-.38-.45-1.05-1.15-2.02-2.09l-2.69-2.69c-2.09-2.04-3.13-4.29-3.13-6.77,0-2.67.61-4.7,1.84-6.09,1.22-1.39,3.01-2.09,5.36-2.09,2.81,0,4.84.75,6.07,2.24,1.24,1.49,1.85,3.82,1.85,7h-6.36l-.04-2.15c0-.41-.11-.74-.34-.98-.23-.24-.55-.36-.96-.36-.49,0-.85.13-1.09.4-.24.27-.36.63-.36,1.09,0,1.02.58,2.07,1.75,3.16l3.64,3.49c.85.82,1.55,1.61,2.11,2.35.56.74,1.01,1.61,1.35,2.62.34,1.01.51,2.2.51,3.58,0,3.08-.56,5.41-1.69,7-1.13,1.59-2.99,2.38-5.58,2.38-2.84,0-4.89-.7-6.15-2.11"/>
    </g>
  </g>
</svg>