<?xml version="1.0" encoding="UTF-8"?>
<svg id="Layer_2" data-name="Layer 2" xmlns="http://www.w3.org/2000/svg" viewBox="0 0 196.81 37.1">
  <defs>
    <style>
      .cls-1 {
        fill: #fff;
      }
    </style>
  </defs>
  <g id="Layer_1-2" data-name="Layer 1">
    <g>
      <g>
        <path class="cls-1" d="M32.17,18.42l-.03.24-10.46,18.33-.2.1-4.48-.05-.06-.12,8.08-14.18c.04-.1-.05-.18-.15-.2-.26-.05-1.27-.03-1.57,0-.19.02-.35.05-.46.23l-8.15,14.26c-.24.15-1.13-.09-1.42-.19-1.3-.43-2-1.2-2.68-2.33C7.03,28.64,3.96,22.44.44,16.53c-.49-1.11-.58-2.42-.2-3.58.28-.86.94-1.66,1.34-2.47l.21.04,11.51,20.33.19-.04,7.12-12.38h11.57Z"/>
        <path class="cls-1" d="M12.2,4.22l-.07.11,6.97,12.44-.04.21-5.57,9.76c-.12.17-.24.28-.38.05L2.8,8.51l.03-.24,2.22-3.87h.15l7.94,14.03c.05.09.16.13.26.09.21-.47.58-.93.8-1.38.15-.32.17-.35.02-.67L6.31,2.54c-.14-.3.21-.68.4-.9.83-.97,2-1.53,3.27-1.64h20.73c1.57.16,2.85.86,3.7,2.2.22.35.83,1.36.95,1.7.03.08.08.33-.04.33H12.2Z"/>
        <path class="cls-1" d="M35.51,16.36h-14.03c-.3,0-.62-.7-.77-.95-1.79-3.01-3.43-6.12-5.19-9.16l.04-.16h21.01c.15.12.23.3.33.46.69,1.13,1.24,2.34,1.95,3.45.07.07.07.31-.02.31h-16.07s-.16.14-.1.2c.3.42.51.95.8,1.37.08.11.15.27.29.3h16.16c.32.06.61,1.25.66,1.56.13.85.04,1.72-.26,2.52-3.53,6.38-7.14,12.72-10.79,19.04-.63.86-2.19,1.79-3.27,1.79h-2.26s-.1-.12-.07-.17l11.52-20.27.07-.3Z"/>
      </g>
      <path class="cls-1" d="M49.28,9.3h5.11c1.32,0,2.31.37,2.97,1.1.66.73,1,1.82,1.01,3.25l.04,8.66c.01,1.82-.3,3.2-.95,4.11-.65.92-1.72,1.38-3.21,1.38h-4.98V9.3ZM53.65,24.53c.67,0,1.01-.33,1.01-.99v-9.54c0-.42-.03-.73-.1-.94-.07-.21-.18-.35-.36-.42-.17-.07-.44-.11-.8-.11h-.41v12h.65Z"/>
      <polygon class="cls-1" points="59.9 27.8 59.9 9.3 67.31 9.3 67.31 12.87 63.67 12.87 63.67 16.47 67.16 16.47 67.16 19.96 63.67 19.96 63.67 24.2 67.54 24.2 67.54 27.8 59.9 27.8"/>
      <polygon class="cls-1" points="68.77 27.8 68.77 9.3 76.18 9.3 76.18 12.89 72.5 12.89 72.5 15.85 75.99 15.85 75.99 19.4 72.5 19.4 72.5 27.8 68.77 27.8"/>
      <polygon class="cls-1" points="77.37 27.8 77.37 9.3 84.78 9.3 84.78 12.89 81.09 12.89 81.09 15.85 84.58 15.85 84.58 19.4 81.09 19.4 81.09 27.8 77.37 27.8"/>
      <path class="cls-1" d="M85.96,9.3h5.69c.9,0,1.6.2,2.1.61.5.41.83.98,1,1.72.17.74.26,1.68.26,2.83,0,1.05-.14,1.87-.41,2.46-.27.59-.75,1-1.42,1.23.56.12.97.4,1.22.84.25.45.38,1.05.38,1.81l-.04,7h-3.62v-7.24c0-.52-.1-.85-.3-.99-.2-.14-.57-.22-1.1-.22v8.44h-3.75V9.3ZM90.61,16.15c.52,0,.78-.56.78-1.68,0-.49-.02-.85-.06-1.1-.04-.24-.12-.41-.24-.51-.12-.09-.28-.14-.5-.14h-.86v3.42h.88Z"/>
      <path class="cls-1" d="M95.74,27.8l1.79-18.5h6.27l1.77,18.5h-3.51l-.26-2.99h-2.24l-.22,2.99h-3.6ZM99.83,21.86h1.68l-.82-9.41h-.17l-.69,9.41Z"/>
      <rect class="cls-1" x="106.51" y="9.3" width="3.58" height="18.5"/>
      <polygon class="cls-1" points="111.57 27.8 111.57 9.3 115.28 9.3 115.28 24.66 119.09 24.66 119.09 27.8 111.57 27.8"/>
      <path class="cls-1" d="M125.92,26.72c-.75-.83-1.12-2.18-1.12-4.03v-1.81h3.64v2.3c0,.92.29,1.38.88,1.38.33,0,.56-.1.69-.29.13-.19.19-.52.19-.98,0-.6-.07-1.1-.22-1.5-.14-.4-.33-.73-.55-.99-.22-.27-.62-.68-1.19-1.24l-1.59-1.59c-1.24-1.21-1.85-2.54-1.85-4.01,0-1.58.36-2.78,1.09-3.61.72-.83,1.78-1.24,3.18-1.24,1.67,0,2.86.44,3.6,1.32.73.88,1.1,2.27,1.1,4.15h-3.77l-.02-1.27c0-.24-.07-.44-.2-.58-.14-.14-.33-.21-.57-.21-.29,0-.5.08-.65.24-.14.16-.22.37-.22.65,0,.6.34,1.23,1.03,1.87l2.15,2.07c.5.49.92.95,1.25,1.39.33.44.6.96.8,1.55.2.6.3,1.3.3,2.12,0,1.82-.33,3.21-1,4.15-.67.94-1.77,1.41-3.31,1.41-1.68,0-2.89-.42-3.64-1.25"/>
      <polygon class="cls-1" points="137.33 27.8 137.33 21.7 134.38 9.3 138.05 9.3 139.08 15.57 140.11 9.3 143.78 9.3 140.82 21.7 140.82 27.8 137.33 27.8"/>
      <path class="cls-1" d="M145.46,26.72c-.75-.83-1.12-2.18-1.12-4.03v-1.81h3.64v2.3c0,.92.29,1.38.88,1.38.33,0,.56-.1.69-.29.13-.19.19-.52.19-.98,0-.6-.07-1.1-.22-1.5-.14-.4-.33-.73-.55-.99-.22-.27-.62-.68-1.19-1.24l-1.59-1.59c-1.24-1.21-1.85-2.54-1.85-4.01,0-1.58.36-2.78,1.09-3.61.72-.83,1.78-1.24,3.18-1.24,1.67,0,2.86.44,3.6,1.32.73.88,1.1,2.27,1.1,4.15h-3.77l-.02-1.27c0-.24-.07-.44-.2-.58-.14-.14-.33-.21-.57-.21-.29,0-.5.08-.65.24-.14.16-.22.37-.22.65,0,.6.34,1.23,1.03,1.87l2.15,2.07c.5.49.92.95,1.25,1.39.33.44.6.96.8,1.55.2.6.3,1.3.3,2.12,0,1.82-.33,3.21-1,4.15-.67.94-1.77,1.41-3.31,1.41-1.68,0-2.89-.42-3.64-1.25"/>
      <polygon class="cls-1" points="156.23 27.8 156.23 12.85 154.03 12.85 154.03 9.3 162.13 9.3 162.13 12.85 159.93 12.85 159.93 27.8 156.23 27.8"/>
      <polygon class="cls-1" points="163.16 27.8 163.16 9.3 170.57 9.3 170.57 12.87 166.93 12.87 166.93 16.47 170.42 16.47 170.42 19.96 166.93 19.96 166.93 24.2 170.81 24.2 170.81 27.8 163.16 27.8"/>
      <polygon class="cls-1" points="172.04 27.8 172.04 9.3 177.68 9.3 179.23 20.58 180.78 9.3 186.47 9.3 186.47 27.8 183.09 27.8 183.09 14.47 180.95 27.8 177.64 27.8 175.37 14.47 175.37 27.8 172.04 27.8"/>
      <path class="cls-1" d="M188.86,26.72c-.75-.83-1.12-2.18-1.12-4.03v-1.81h3.64v2.3c0,.92.29,1.38.88,1.38.33,0,.56-.1.69-.29.13-.19.19-.52.19-.98,0-.6-.07-1.1-.22-1.5-.14-.4-.33-.73-.55-.99-.22-.27-.62-.68-1.19-1.24l-1.59-1.59c-1.24-1.21-1.85-2.54-1.85-4.01,0-1.58.36-2.78,1.09-3.61.72-.83,1.78-1.24,3.18-1.24,1.67,0,2.86.44,3.6,1.32.73.88,1.1,2.27,1.1,4.15h-3.77l-.02-1.27c0-.24-.07-.44-.2-.58-.14-.14-.33-.21-.57-.21-.29,0-.5.08-.65.24-.14.16-.22.37-.22.65,0,.6.34,1.23,1.03,1.87l2.15,2.07c.5.49.92.95,1.25,1.39.33.44.6.96.8,1.55.2.6.3,1.3.3,2.12,0,1.82-.33,3.21-1,4.15-.67.94-1.77,1.41-3.31,1.41-1.68,0-2.89-.42-3.64-1.25"/>
    </g>
  </g>
</svg>