<?xml version="1.0" encoding="UTF-8"?>
<svg id="Layer_2" data-name="Layer 2" xmlns="http://www.w3.org/2000/svg" viewBox="0 0 32.09 32.93">
  <defs>
    <style>
      .cls-1 {
        fill: #12853f;
      }
    </style>
  </defs>
  <g id="Layer_1-2" data-name="Layer 1">
    <path class="cls-1" d="M1.78,32.93v-5.34h5.52L2.76,12.73c-.8-.44-1.46-1.1-1.98-1.96-.52-.86-.78-1.78-.78-2.76,0-1.48.52-2.74,1.56-3.78,1.04-1.04,2.3-1.56,3.78-1.56,1.16,0,2.19.33,3.09,1,.9.67,1.53,1.52,1.89,2.56h5.69v-1.78c0-.5.17-.93.51-1.27.34-.34.76-.51,1.27-.51.27,0,.53.06.78.18.25.12.47.3.65.53h0l3.03-2.85c.27-.27.59-.44.96-.51.37-.07.73-.02,1.09.16l6.94,3.2c.36.18.6.44.73.78.13.34.13.67-.02,1-.18.36-.44.59-.78.69-.34.1-.67.08-1-.07l-6.41-2.94-4.18,3.92v2.49l4.18,3.83,6.41-2.94c.33-.15.67-.16,1.02-.04.36.12.61.34.76.67.18.36.19.7.04,1.02-.15.33-.4.58-.76.76l-6.94,3.29c-.36.18-.72.23-1.09.16-.37-.07-.69-.24-.96-.51l-3.03-2.85h0c-.18.18-.39.34-.65.49-.25.15-.51.22-.78.22-.5,0-.93-.17-1.27-.51-.34-.34-.51-.76-.51-1.27v-1.78h-5.69c-.09.24-.19.46-.29.67-.1.21-.24.43-.42.67l8.9,16.46h6.41v5.34H1.78M5.34,9.8c.5,0,.93-.17,1.27-.51.34-.34.51-.76.51-1.27s-.17-.93-.51-1.27c-.34-.34-.76-.51-1.27-.51s-.93.17-1.27.51c-.34.34-.51.76-.51,1.27s.17.93.51,1.27c.34.34.76.51,1.27.51h0M10.94,27.59h3.47l-7.65-14.24h-.18l4.36,14.24h0"/>
  </g>
</svg>