<?xml version="1.0" encoding="UTF-8"?>
<svg id="Layer_2" data-name="Layer 2" xmlns="http://www.w3.org/2000/svg" viewBox="0 0 22.76 17.29">
  <defs>
    <style>
      .cls-1 {
        fill: #2e78bc;
      }
    </style>
  </defs>
  <g id="Layer_1-2" data-name="Layer 1">
    <path class="cls-1" d="M21.91,15.64c-1.61-1.49-4.83-4.42-7.75-6.72-.19-.15-.19-.43,0-.57,2.93-2.3,6.15-5.22,7.75-6.71.22-.2.58-.07.61.23.33,3.42.33,10.11,0,13.54-.03.3-.39.44-.61.23ZM21.43,1.1c-2,1.85-6.53,5.97-9.84,8.27-.12.09-.29.09-.42,0C7.87,7.07,3.33,2.95,1.34,1.1c-.22-.21-.11-.58.19-.63,2.03-.29,5.66-.47,9.85-.47s7.82.18,9.85.47c.3.04.42.42.19.63ZM.24,15.41c-.33-3.42-.33-10.11,0-13.54.03-.3.39-.44.61-.23,1.61,1.49,4.82,4.41,7.75,6.71.19.15.18.43,0,.57-2.92,2.29-6.14,5.22-7.75,6.71-.22.21-.58.07-.61-.23ZM1.34,16.19c1.65-1.53,5.03-4.6,8.01-6.92.13-.1.31-.1.44,0,.48.36.95.69,1.39.99h0c.12.08.28.08.4,0h0c.44-.29.91-.63,1.39-.99.13-.1.31-.1.44,0,2.98,2.31,6.37,5.39,8.01,6.92.22.21.11.58-.19.63-2.03.29-5.66.47-9.85.47s-7.83-.18-9.85-.47c-.3-.04-.42-.42-.19-.63Z"/>
  </g>
</svg>