<?xml version="1.0" encoding="UTF-8"?>
<svg id="Layer_2" data-name="Layer 2" xmlns="http://www.w3.org/2000/svg" viewBox="0 0 25.37 24.22">
  <defs>
    <style>
      .cls-1 {
        fill: #fff;
      }
    </style>
  </defs>
  <g id="Layer_1-2" data-name="Layer 1">
    <g id="gX6q7Z.tif">
      <g>
        <path class="cls-1" d="M16.61,24.22l-3.9-1.67-3.95,1.65-2.19-3.68-4.14-.92.4-4.25-2.83-3.26,2.83-3.2-.39-4.29,4.18-.94L8.73,0l3.98,1.68,3.9-1.68,2.18,3.69,4.15.92-.38,4.29,2.82,3.19-2.84,3.26.41,4.25-4.15.91-2.18,3.69ZM15.69,21.25l1.61-2.76,3.16-.75-.29-3.22,2.11-2.39-2.1-2.46.25-3.24-3.14-.69-1.67-2.74-2.96,1.24-2.97-1.25-1.58,2.74-3.18.71.29,3.22-2.13,2.46,2.13,2.44-.29,3.26,3.17.7,1.66,2.76,2.9-1.28,3.03,1.26Z"/>
        <polygon class="cls-1" points="7.37 12.13 8.92 10.46 11.48 12.88 16.36 8.03 18 9.69 11.47 16.22 7.37 12.13"/>
      </g>
    </g>
  </g>
</svg>