<?xml version="1.0" encoding="UTF-8"?>
<svg id="Layer_2" data-name="Layer 2" xmlns="http://www.w3.org/2000/svg" viewBox="0 0 28.47 35.59">
  <defs>
    <style>
      .cls-1 {
        fill: #12853f;
      }
    </style>
  </defs>
  <g id="Layer_1-2" data-name="Layer 1">
    <path class="cls-1" d="M14.73,30.25c.36-.03.66-.17.91-.42.25-.25.38-.56.38-.91,0-.42-.13-.75-.4-1-.27-.25-.61-.36-1.02-.33-1.22.09-2.51-.24-3.87-1-1.36-.76-2.22-2.13-2.58-4.12-.06-.33-.22-.59-.47-.8s-.54-.31-.87-.31c-.42,0-.76.16-1.02.47s-.36.67-.27,1.09c.5,2.7,1.69,4.63,3.56,5.78,1.87,1.16,3.75,1.68,5.65,1.56h0M14.24,35.59c-4.06,0-7.45-1.39-10.17-4.18C1.36,28.62,0,25.15,0,21c0-2.97,1.18-6.19,3.54-9.68C5.89,7.84,9.46,4.06,14.24,0c4.78,4.06,8.34,7.84,10.7,11.32,2.36,3.49,3.54,6.71,3.54,9.68,0,4.15-1.36,7.62-4.07,10.41-2.71,2.79-6.1,4.18-10.17,4.18h0M14.24,32.03c3.08,0,5.64-1.05,7.65-3.14,2.02-2.09,3.03-4.72,3.03-7.9,0-2.17-.9-4.61-2.69-7.34-1.79-2.73-4.46-5.71-7.99-8.94-3.53,3.23-6.19,6.21-7.99,8.94-1.79,2.73-2.69,5.18-2.69,7.34,0,3.17,1.01,5.81,3.03,7.9,2.02,2.09,4.57,3.14,7.65,3.14h0"/>
  </g>
</svg>