<?xml version="1.0" encoding="UTF-8"?>
<svg id="Layer_2" data-name="Layer 2" xmlns="http://www.w3.org/2000/svg" viewBox="0 0 23.73 23.73">
  <defs>
    <style>
      .cls-1 {
        fill: #fff;
      }

      .cls-2 {
        fill: #56aaef;
      }

      .cls-3 {
        fill: #2f78bd;
      }
    </style>
  </defs>
  <g id="Layer_1-2" data-name="Layer 1">
    <path class="cls-3" d="M21.58,8.37c-.29-.3-.46-.7-.46-1.12v-1.41c0-1.79-1.45-3.23-3.23-3.23h-1.41c-.42,0-.82-.16-1.12-.46l-1.2-1.2c-1.26-1.26-3.31-1.26-4.58,0l-1.2,1.2c-.3.3-.7.46-1.12.46h-1.41c-1.79,0-3.23,1.45-3.24,3.23v1.41c0,.42-.17.82-.46,1.12l-1.21,1.2c-1.26,1.26-1.26,3.31,0,4.57l1.21,1.2c.3.3.46.7.46,1.12v1.41c0,1.79,1.45,3.23,3.24,3.23h1.41c.42,0,.82.17,1.12.46l1.2,1.2c1.26,1.26,3.31,1.26,4.58,0l1.2-1.2c.3-.3.7-.46,1.12-.46h1.41c1.79,0,3.23-1.45,3.24-3.23v-1.41c0-.42.17-.82.46-1.12l1.21-1.2c1.26-1.26,1.26-3.31,0-4.57l-1.21-1.2Z"/>
    <path class="cls-2" d="M11.87,4.41c4.11,0,7.45,3.34,7.45,7.45s-3.34,7.45-7.45,7.45-7.45-3.34-7.45-7.45,3.34-7.45,7.45-7.45"/>
    <path class="cls-1" d="M10.76,14.9c-.22,0-.43-.09-.59-.24l-2.21-2.21c-.31-.33-.29-.86.04-1.17.32-.3.81-.3,1.13,0l1.62,1.62,3.83-3.83c.33-.31.86-.29,1.17.04.3.32.3.81,0,1.13l-4.42,4.42c-.16.16-.37.24-.59.24"/>
  </g>
</svg>